# xmcd
# 
# Track frame offsets:
#     150
#     55112
#     78417
#     86105
#     109905
#     111460
#     128460
#     155430
#     170365
# 
# Disc length: 2448
# 
# Revision: 16
# Processed by: cddbd v1.5.2PL0 Copyright (c) Steve Scherf et al.
# Submitted via: fre:ac v1.0.17
# 
DISCID=6d098e09
DTITLE=Lauryn Hill - MTV Unplugged No. 2.0 - Disc 2
DYEAR=2002
DGENRE=R&B
TTITLE0=Interlude 5
TTITLE1=Mystery Of Iniquity
TTITLE2=Interlude 6
TTITLE3=I Get Out
TTITLE4=Interlude 7
TTITLE5=I Remember
TTITLE6=So Much Things To Say
TTITLE7=The Conquering Lion
TTITLE8=Outro
EXTD=
EXTT0=
EXTT1=
EXTT2=
EXTT3=
EXTT4=
EXTT5=
EXTT6=
EXTT7=
EXTT8=
PLAYORDER=
